HIERARCHY
ROOT joint_0
{
	OFFSET 0.000000 0.000000 0.000000
	CHANNELS 6 Xposition Yposition Zposition Zrotation Yrotation Xrotation 
	JOINT joint_1
	{
		OFFSET 0.587158 0.057678 95.682007
		CHANNELS 3 Zrotation Yrotation Xrotation
		JOINT joint_2
		{
			OFFSET -7.116699 -0.219910 87.157959
			CHANNELS 3 Zrotation Yrotation Xrotation
			JOINT joint_3
			{
				OFFSET -5.892822 -0.290222 87.151001
				CHANNELS 3 Zrotation Yrotation Xrotation
				JOINT joint_4
				{
					OFFSET 5.544678 -0.099609 123.768066
					CHANNELS 3 Zrotation Yrotation Xrotation
					JOINT joint_5
					{
						OFFSET 41.981201 4.519775 84.257935
						CHANNELS 3 Zrotation Yrotation Xrotation
						End Site
						{
							OFFSET 0.000000 0.000000 0.000000
						}
					}
				}
				JOINT joint_6
				{
					OFFSET 3.940918 -26.976501 69.308105
					CHANNELS 3 Zrotation Yrotation Xrotation
					JOINT joint_7
					{
						OFFSET 4.776123 -152.592468 -16.842041
						CHANNELS 3 Zrotation Yrotation Xrotation
						JOINT joint_8
						{
							OFFSET 54.421875 -30.424072 -248.864014
							CHANNELS 3 Zrotation Yrotation Xrotation
							JOINT joint_9
							{
								OFFSET 42.120117 -33.387878 -236.524963
								CHANNELS 3 Zrotation Yrotation Xrotation
								End Site
								{
									OFFSET 0.000000 0.000000 0.000000
								}
							}
						}
					}
				}
				JOINT joint_10
				{
					OFFSET 2.312012 26.904114 69.425049
					CHANNELS 3 Zrotation Yrotation Xrotation
					JOINT joint_11
					{
						OFFSET 0.971436 152.197815 -20.626953
						CHANNELS 3 Zrotation Yrotation Xrotation
						JOINT joint_12
						{
							OFFSET 49.954102 28.991455 -249.970093
							CHANNELS 3 Zrotation Yrotation Xrotation
							JOINT joint_13
							{
								OFFSET 48.146973 19.598389 -236.919922
								CHANNELS 3 Zrotation Yrotation Xrotation
								End Site
								{
									OFFSET 0.000000 0.000000 0.000000
								}
							}
						}
					}
				}
			}
		}
	}
	JOINT joint_14
	{
		OFFSET 16.305664 -89.442932 -108.224976
		CHANNELS 3 Zrotation Yrotation Xrotation
		JOINT joint_15
		{
			OFFSET -22.282471 13.437134 -412.904968
			CHANNELS 3 Zrotation Yrotation Xrotation
			JOINT joint_16
			{
				OFFSET -45.426025 14.484802 -445.892029
				CHANNELS 3 Zrotation Yrotation Xrotation
				JOINT joint_17
				{
					OFFSET 173.389404 -9.944031 -76.473001
					CHANNELS 3 Zrotation Yrotation Xrotation
					End Site
					{
						OFFSET 0.000000 0.000000 0.000000
					}
				}
			}
		}
	}
	JOINT joint_18
	{
		OFFSET 13.392822 89.408875 -108.653992
		CHANNELS 3 Zrotation Yrotation Xrotation
		JOINT joint_19
		{
			OFFSET -29.032959 24.483521 -411.977966
			CHANNELS 3 Zrotation Yrotation Xrotation
			JOINT joint_20
			{
				OFFSET -30.530029 28.986328 -446.453018
				CHANNELS 3 Zrotation Yrotation Xrotation
				JOINT joint_21
				{
					OFFSET 170.330078 33.400757 -76.698997
					CHANNELS 3 Zrotation Yrotation Xrotation
					End Site
					{
						OFFSET 0.000000 0.000000 0.000000
					}
				}
			}
		}
	}
}
MOTION
Frames: 7
Frame Time: 0.016667
-1822.199219 1030.534668 1059.297974 -11.753754 -1.932001 -0.952880 0.173945 3.074271 2.290014 -0.060612 -0.605308 -0.545728 0.005713 0.577843 0.336406 -2.945383 -6.034401 7.079674 0.000000 0.000000 0.000000 -1.054340 1.237483 -0.632978 -0.279679 1.123065 -1.533466 1.074463 -3.875362 2.192126 0.000000 0.000000 0.000000 -1.292561 0.173242 -2.077239 0.674736 0.395014 3.180801 0.000812 -0.527571 0.258915 0.000000 0.000000 0.000000 -2.606190 -1.386364 -3.436984 -2.680850 4.112235 -0.199021 -2.821611 -1.003151 -1.285568 0.000000 0.000000 0.000000 2.187688 -1.128906 4.269512 2.435928 0.103461 1.338649 2.722842 3.658570 0.495661 0.000000 0.000000 0.000000 
-1821.630005 1030.351074 1059.256958 -11.779830 -1.921929 -0.948930 0.172486 3.010285 2.238769 -0.056185 -0.592695 -0.531676 0.008388 0.565450 0.326920 -2.950906 -5.947079 7.077981 0.000000 0.000000 0.000000 -1.057943 1.210156 -0.627689 -0.262724 1.094855 -1.491523 1.119826 -4.012197 2.295143 0.000000 0.000000 0.000000 -1.282972 0.185821 -2.049927 0.659657 0.405036 3.094347 -0.019535 -0.606400 0.196261 0.000000 0.000000 0.000000 -2.600145 -1.385877 -3.444135 -2.674828 4.144649 -0.187708 -2.816246 -0.983437 -1.282164 0.000000 0.000000 0.000000 2.194450 -1.128318 4.232777 2.438487 0.159073 1.411339 2.722684 3.616962 0.503844 0.000000 0.000000 0.000000 
-1821.046997 1030.144287 1059.217041 -11.821887 -1.920807 -0.946219 0.175806 2.949550 2.185125 -0.046640 -0.581050 -0.516840 0.016156 0.554339 0.317522 -2.957660 -5.824696 7.072103 0.000000 0.000000 0.000000 -1.062864 1.184711 -0.619298 -0.246520 1.068196 -1.453519 1.166368 -4.148756 2.403193 0.000000 0.000000 0.000000 -1.276491 0.196666 -2.021346 0.643270 0.413629 3.000743 -0.041026 -0.695108 0.132270 0.000000 0.000000 0.000000 -2.586971 -1.372371 -3.448444 -2.661792 4.174362 -0.176983 -2.804646 -0.988292 -1.277461 0.000000 0.000000 0.000000 2.207178 -1.108594 4.208337 2.447274 0.206352 1.469327 2.727916 3.571301 0.515227 0.000000 0.000000 0.000000 
-1820.458252 1029.922485 1059.177002 -11.873983 -1.923907 -0.944500 0.181938 2.890110 2.129986 -0.034069 -0.568395 -0.501286 0.026873 0.542228 0.307704 -2.965400 -5.676898 7.063532 0.000000 0.000000 0.000000 -1.069387 1.160725 -0.608376 -0.230732 1.042652 -1.418896 1.214230 -4.286862 2.515139 0.000000 0.000000 0.000000 -1.272542 0.205237 -1.993117 0.625935 0.420205 2.902200 -0.064401 -0.792851 0.062800 0.000000 0.000000 0.000000 -2.570175 -1.352527 -3.450759 -2.645231 4.201325 -0.165734 -2.789644 -1.002026 -1.271794 0.000000 0.000000 0.000000 2.223456 -1.078403 4.192117 2.459888 0.247737 1.517234 2.736537 3.524274 0.528387 0.000000 0.000000 0.000000 
-1819.891479 1029.692871 1059.131958 -11.924979 -1.928251 -0.944480 0.189032 2.840959 2.078193 -0.021061 -0.558257 -0.486980 0.038115 0.532454 0.297637 -2.974704 -5.531639 7.058798 0.000000 0.000000 0.000000 -1.078986 1.138399 -0.595865 -0.215542 1.018280 -1.389741 1.262637 -4.428165 2.625616 0.000000 0.000000 0.000000 -1.269237 0.205749 -1.966538 0.608622 0.418810 2.806980 -0.089209 -0.894559 -0.012428 0.000000 0.000000 0.000000 -2.556994 -1.333003 -3.450110 -2.632213 4.225328 -0.152801 -2.777144 -0.994475 -1.266011 0.000000 0.000000 0.000000 2.239730 -1.047290 4.174852 2.471824 0.283775 1.569071 2.746195 3.491747 0.539149 0.000000 0.000000 0.000000 
-1819.356689 1029.461548 1059.074951 -11.972172 -1.934884 -0.945291 0.197156 2.808863 2.028706 -0.007612 -0.553702 -0.474605 0.050080 0.526280 0.289377 -2.986888 -5.392211 7.061110 0.000000 0.000000 0.000000 -1.096395 1.117461 -0.584902 -0.200219 0.994348 -1.365265 1.312915 -4.579492 2.734763 0.000000 0.000000 0.000000 -1.265653 0.194530 -1.942306 0.590787 0.405572 2.714645 -0.115212 -0.996465 -0.094096 0.000000 0.000000 0.000000 -2.549915 -1.319686 -3.449823 -2.625338 4.257560 -0.133156 -2.769826 -0.963020 -1.261130 0.000000 0.000000 0.000000 2.255409 -1.019697 4.152497 2.482556 0.320969 1.629814 2.756602 3.478679 0.546402 0.000000 0.000000 0.000000 
-1818.843018 1029.222412 1059.012939 -12.018316 -1.942623 -0.947355 0.205364 2.786118 1.981102 0.005639 -0.550589 -0.462276 0.061845 0.522503 0.280834 -3.000323 -5.255377 7.066701 0.000000 0.000000 0.000000 -1.115065 1.097881 -0.572522 -0.185438 0.971483 -1.346356 1.363890 -4.734825 2.842308 0.000000 0.000000 0.000000 -1.259793 0.175404 -1.920001 0.573022 0.384132 2.625622 -0.142728 -1.102998 -0.181806 0.000000 0.000000 0.000000 -2.546313 -1.306917 -3.447231 -2.621921 4.286987 -0.111682 -2.764934 -0.910342 -1.256105 0.000000 0.000000 0.000000 2.271137 -0.991252 4.128367 2.492579 0.352667 1.694978 2.768083 3.480508 0.551195 0.000000 0.000000 0.000000 
